<svg width="499" height="313" viewBox="0 0 499 313" fill="none" xmlns="http://www.w3.org/2000/svg">
<g clip-path="url(#clip0_1_335)">
<rect y="20.287" width="498.481" height="75.3519" fill="black"/>
<g filter="url(#filter0_b_1_335)">
<rect width="498.481" height="313" rx="23.1852" fill="#A0E59C"/>
<rect x="0.5" y="0.5" width="497.481" height="312" rx="22.6852" stroke="black"/>
</g>
<path d="M63.0927 193.538V173.889H55.9343C55.1808 173.889 54.4852 174.295 54.4852 175.338C54.4852 176.381 55.1808 176.787 55.9343 176.787H60.1946V193.538H55.9343C55.1808 193.538 54.4852 193.944 54.4852 194.987C54.4852 196.031 55.1808 196.436 55.9343 196.436H67.353C68.1065 196.436 68.8021 196.031 68.8021 194.987V187.684C68.8021 186.844 68.4253 186.235 67.353 186.235C66.2807 186.235 65.9039 186.844 65.9039 187.684V193.538H63.0927Z" fill="#232323"/>
<path d="M78.2421 186.612H86.4149C87.3713 186.612 88.0379 186.467 88.7624 185.8C89.5739 185.047 89.6608 184.264 89.6608 183.221V177.28C89.6608 176.236 89.5739 175.454 88.7624 174.7C88.0379 174.034 87.3713 173.889 86.4149 173.889H76.793C76.0395 173.889 75.344 174.295 75.344 175.338C75.344 176.381 76.0395 176.787 76.793 176.787H86.7627V183.714H78.6189C76.4453 183.714 75.344 184.815 75.344 186.988V196.436H88.2117C88.9653 196.436 89.6608 196.031 89.6608 194.987C89.6608 193.944 88.9653 193.538 88.2117 193.538H78.2421V186.612Z" fill="#232323"/>
<path d="M107.621 176.787V181.598C107.621 183.221 106.984 183.714 106.172 183.714H100.492C99.7385 183.714 99.0429 184.119 99.0429 185.163C99.0429 186.206 99.7385 186.612 100.492 186.612H106.172C106.984 186.612 107.621 187.104 107.621 188.727V193.538H97.6518C96.8983 193.538 96.2027 193.944 96.2027 194.987C96.2027 196.031 96.8983 196.436 97.6518 196.436H107.621C109.273 196.436 110.52 195.19 110.52 193.538V187.974C110.52 186.815 110.288 185.974 109.389 185.163C110.288 184.351 110.52 183.511 110.52 182.351V176.787C110.52 175.135 109.273 173.889 107.621 173.889H97.6518C96.8983 173.889 96.2027 174.295 96.2027 175.338C96.2027 176.381 96.8983 176.787 97.6518 176.787H107.621Z" fill="#232323"/>
<path d="M121.409 186.177V175.338C121.409 174.613 121.061 173.889 119.96 173.889C118.858 173.889 118.511 174.613 118.511 175.338V189.075H127.031V194.987C127.031 195.915 127.437 196.436 128.48 196.436C129.523 196.436 129.929 195.915 129.929 194.987V189.075C130.683 189.075 131.378 188.669 131.378 187.626C131.378 186.583 130.683 186.177 129.929 186.177V177.801C129.929 177.077 129.581 176.352 128.48 176.352C127.379 176.352 127.031 177.077 127.031 177.801V186.177H121.409Z" fill="#232323"/>
<path d="M164.546 176.787H171.647C172.4 176.787 173.096 176.381 173.096 175.338C173.096 174.295 172.4 173.889 171.647 173.889H161.648V186.612H170.198V193.538H163.503C163.039 193.538 162.373 193.133 161.967 192.959L161.097 192.582C160.779 192.437 160.518 192.35 160.17 192.35C159.417 192.35 158.779 193.046 158.779 193.799C158.779 194.813 159.648 195.074 160.431 195.422L161.532 195.915C162.257 196.234 162.691 196.436 163.445 196.436H169.879C170.922 196.436 171.676 196.321 172.4 195.451C173.009 194.727 173.096 194.089 173.096 193.191V186.988C173.096 185.974 173.009 185.279 172.197 184.525C171.502 183.858 170.806 183.714 169.879 183.714H164.546V176.787Z" fill="#232323"/>
<path d="M182.536 176.787C183.376 176.787 183.985 176.207 183.985 175.338C183.985 174.584 183.376 173.889 182.623 173.889H180.884C179.87 173.889 179.638 174.671 179.638 175.338V194.611C179.638 195.944 180.159 196.436 181.521 196.436H192.071C193.375 196.436 193.955 195.973 193.955 194.611V188.119C193.955 186.786 193.665 186.177 192.216 186.177H182.536V176.787ZM191.056 189.075V193.538H182.536V189.075H191.056Z" fill="#232323"/>
<path d="M211.915 176.787V180.786C211.915 182.062 211.973 182.033 211.017 182.873L207.017 186.322C206.293 186.96 206.264 187.046 206.264 188.003V194.987C206.264 195.915 206.669 196.436 207.713 196.436C208.756 196.436 209.162 195.915 209.162 194.987V189.365C209.162 188.351 209.22 188.293 209.973 187.626L214.031 184.119C214.842 183.424 214.813 183.308 214.813 182.293V173.889H201.945C201.018 173.889 200.496 174.7 200.496 175.338V176.787C200.496 177.425 201.018 178.236 201.945 178.236C202.873 178.236 203.395 177.425 203.395 176.787H211.915Z" fill="#232323"/>
<path d="M227.151 183.714V176.787H229.876V183.714H227.151ZM225.702 173.889C224.717 173.889 224.253 174.584 224.253 175.338V183.714C223.355 183.714 222.659 184.032 222.138 184.525C221.616 185.018 221.355 185.742 221.355 186.641V193.538C221.355 195.306 222.456 196.436 224.253 196.436H232.774C234.571 196.436 235.672 195.306 235.672 193.538V186.641C235.672 185.742 235.411 185.018 234.89 184.525C234.368 184.032 233.672 183.714 232.774 183.714V175.338C232.774 174.584 232.31 173.889 231.325 173.889H225.702ZM224.253 193.538V186.612H232.774V193.538H224.253Z" fill="#232323"/>
<path d="M274.491 193.538C273.651 193.538 273.042 194.118 273.042 194.987C273.042 195.77 273.622 196.436 274.491 196.436H275.94C276.81 196.436 277.389 195.77 277.389 194.987V175.338C277.389 174.584 276.752 173.889 275.94 173.889H264.522C263.71 173.889 263.073 174.584 263.073 175.338V182.757C263.073 183.511 263.71 184.206 264.522 184.206H274.491V193.538ZM265.971 181.308V176.787H274.491V181.308H265.971Z" fill="#232323"/>
<path d="M286.83 173.889C285.236 173.889 283.931 175.193 283.931 176.787V193.538C283.931 195.161 285.178 196.436 286.83 196.436H295.35C297.002 196.436 298.248 195.161 298.248 193.538V176.787C298.248 175.193 296.944 173.889 295.35 173.889H286.83ZM286.83 193.538V176.787H295.35V193.538H286.83Z" fill="#232323"/>
<path d="M307.688 173.889C306.094 173.889 304.79 175.193 304.79 176.787V193.538C304.79 195.161 306.036 196.436 307.688 196.436H316.209C317.861 196.436 319.107 195.161 319.107 193.538V176.787C319.107 175.193 317.803 173.889 316.209 173.889H307.688ZM307.688 193.538V176.787H316.209V193.538H307.688Z" fill="#232323"/>
<path d="M328.547 173.889C326.953 173.889 325.649 175.193 325.649 176.787V193.538C325.649 195.161 326.895 196.436 328.547 196.436H337.068C338.72 196.436 339.966 195.161 339.966 193.538V176.787C339.966 175.193 338.662 173.889 337.068 173.889H328.547ZM328.547 193.538V176.787H337.068V193.538H328.547Z" fill="#232323"/>
<path d="M370.264 173.889C368.671 173.889 367.366 175.193 367.366 176.787V193.538C367.366 195.161 368.613 196.436 370.264 196.436H378.785C380.437 196.436 381.683 195.161 381.683 193.538V176.787C381.683 175.193 380.379 173.889 378.785 173.889H370.264ZM370.264 193.538V176.787H378.785V193.538H370.264Z" fill="#232323"/>
<path d="M391.123 173.889C389.529 173.889 388.225 175.193 388.225 176.787V193.538C388.225 195.161 389.471 196.436 391.123 196.436H399.644C401.296 196.436 402.542 195.161 402.542 193.538V176.787C402.542 175.193 401.238 173.889 399.644 173.889H391.123ZM391.123 193.538V176.787H399.644V193.538H391.123Z" fill="#232323"/>
<path d="M411.982 173.889C410.388 173.889 409.084 175.193 409.084 176.787V193.538C409.084 195.161 410.33 196.436 411.982 196.436H420.503C422.154 196.436 423.401 195.161 423.401 193.538V176.787C423.401 175.193 422.096 173.889 420.503 173.889H411.982ZM411.982 193.538V176.787H420.503V193.538H411.982Z" fill="#232323"/>
<path d="M432.841 173.889C431.247 173.889 429.943 175.193 429.943 176.787V193.538C429.943 195.161 431.189 196.436 432.841 196.436H441.361C443.013 196.436 444.259 195.161 444.259 193.538V176.787C444.259 175.193 442.955 173.889 441.361 173.889H432.841ZM432.841 193.538V176.787H441.361V193.538H432.841Z" fill="#232323"/>
<path d="M50.576 238.418V228.68H52.0644L56.3212 235.789H55.5422L59.7295 228.68H61.218L61.2319 238.418H59.5208L59.5069 231.365H59.8686L56.3073 237.305H55.5005L51.8836 231.365H52.3009V238.418H50.576ZM63.6952 238.418V230.989H65.4341V238.418H63.6952ZM64.5716 229.765C64.247 229.765 63.9781 229.663 63.7648 229.459C63.5607 229.255 63.4587 229.009 63.4587 228.722C63.4587 228.425 63.5607 228.179 63.7648 227.985C63.9781 227.781 64.247 227.679 64.5716 227.679C64.8962 227.679 65.1605 227.776 65.3646 227.971C65.5779 228.156 65.6845 228.393 65.6845 228.68C65.6845 228.986 65.5825 229.246 65.3785 229.459C65.1744 229.663 64.9055 229.765 64.5716 229.765ZM71.9315 230.906C72.525 230.906 73.0536 231.022 73.5173 231.254C73.9903 231.486 74.3613 231.843 74.6302 232.325C74.8992 232.798 75.0336 233.41 75.0336 234.161V238.418H73.2948V234.384C73.2948 233.725 73.1371 233.234 72.8218 232.909C72.5157 232.585 72.0845 232.422 71.528 232.422C71.12 232.422 70.7583 232.506 70.443 232.673C70.1277 232.84 69.8819 233.09 69.7057 233.424C69.5388 233.748 69.4553 234.161 69.4553 234.662V238.418H67.7164V230.989H69.3718V232.993L69.0797 232.381C69.3394 231.908 69.715 231.546 70.2065 231.295C70.7073 231.036 71.2823 230.906 71.9315 230.906ZM77.2395 238.418V230.989H78.9784V238.418H77.2395ZM78.1159 229.765C77.7913 229.765 77.5224 229.663 77.3091 229.459C77.1051 229.255 77.003 229.009 77.003 228.722C77.003 228.425 77.1051 228.179 77.3091 227.985C77.5224 227.781 77.7913 227.679 78.1159 227.679C78.4405 227.679 78.7048 227.776 78.9089 227.971C79.1222 228.156 79.2288 228.393 79.2288 228.68C79.2288 228.986 79.1268 229.246 78.9228 229.459C78.7187 229.663 78.4498 229.765 78.1159 229.765ZM85.2722 238.418V228.68H86.7607L91.0175 235.789H90.2385L94.4257 228.68H95.9142L95.9281 238.418H94.2171L94.2032 231.365H94.5648L91.0036 237.305H90.1968L86.5799 231.365H86.9972V238.418H85.2722ZM101.73 238.515C100.97 238.515 100.293 238.353 99.6991 238.028C99.1056 237.695 98.6372 237.24 98.2941 236.665C97.951 236.09 97.7794 235.436 97.7794 234.704C97.7794 233.962 97.951 233.308 98.2941 232.742C98.6372 232.167 99.1056 231.717 99.6991 231.393C100.293 231.068 100.97 230.906 101.73 230.906C102.5 230.906 103.182 231.068 103.775 231.393C104.378 231.717 104.846 232.163 105.18 232.728C105.523 233.294 105.695 233.953 105.695 234.704C105.695 235.436 105.523 236.09 105.18 236.665C104.846 237.24 104.378 237.695 103.775 238.028C103.182 238.353 102.5 238.515 101.73 238.515ZM101.73 237.027C102.157 237.027 102.537 236.934 102.871 236.749C103.205 236.563 103.464 236.294 103.65 235.942C103.845 235.589 103.942 235.177 103.942 234.704C103.942 234.221 103.845 233.809 103.65 233.466C103.464 233.113 103.205 232.844 102.871 232.659C102.537 232.473 102.161 232.381 101.744 232.381C101.317 232.381 100.937 232.473 100.603 232.659C100.279 232.844 100.019 233.113 99.8243 233.466C99.6296 233.809 99.5322 234.221 99.5322 234.704C99.5322 235.177 99.6296 235.589 99.8243 235.942C100.019 236.294 100.279 236.563 100.603 236.749C100.937 236.934 101.313 237.027 101.73 237.027ZM110.502 238.515C109.871 238.515 109.314 238.399 108.832 238.168C108.35 237.926 107.974 237.565 107.705 237.083C107.436 236.591 107.302 235.974 107.302 235.232V230.989H109.041V234.996C109.041 235.664 109.189 236.164 109.486 236.498C109.792 236.823 110.223 236.985 110.78 236.985C111.188 236.985 111.54 236.902 111.837 236.735C112.143 236.568 112.38 236.317 112.546 235.984C112.723 235.65 112.811 235.237 112.811 234.745V230.989H114.55V238.418H112.894V236.415L113.186 237.027C112.936 237.509 112.57 237.88 112.087 238.14C111.605 238.39 111.077 238.515 110.502 238.515ZM119.122 238.515C118.5 238.515 117.902 238.437 117.327 238.279C116.761 238.112 116.312 237.913 115.978 237.681L116.646 236.359C116.979 236.572 117.378 236.749 117.842 236.888C118.306 237.027 118.769 237.096 119.233 237.096C119.78 237.096 120.174 237.022 120.415 236.874C120.666 236.725 120.791 236.526 120.791 236.276C120.791 236.072 120.708 235.919 120.541 235.817C120.374 235.705 120.156 235.622 119.887 235.566C119.618 235.511 119.317 235.46 118.983 235.413C118.658 235.367 118.329 235.307 117.995 235.232C117.67 235.149 117.374 235.033 117.105 234.885C116.836 234.727 116.618 234.518 116.451 234.259C116.284 233.999 116.2 233.656 116.2 233.229C116.2 232.756 116.335 232.348 116.604 232.005C116.873 231.653 117.248 231.384 117.731 231.198C118.222 231.003 118.802 230.906 119.47 230.906C119.97 230.906 120.476 230.962 120.986 231.073C121.496 231.184 121.918 231.342 122.252 231.546L121.584 232.867C121.232 232.654 120.875 232.51 120.513 232.436C120.16 232.353 119.808 232.311 119.456 232.311C118.927 232.311 118.533 232.39 118.273 232.547C118.023 232.705 117.898 232.905 117.898 233.146C117.898 233.368 117.981 233.535 118.148 233.646C118.315 233.758 118.533 233.846 118.802 233.911C119.071 233.976 119.368 234.031 119.692 234.078C120.026 234.115 120.355 234.175 120.68 234.259C121.004 234.342 121.301 234.458 121.57 234.606C121.848 234.745 122.071 234.945 122.238 235.205C122.405 235.464 122.488 235.803 122.488 236.22C122.488 236.684 122.349 237.087 122.071 237.43C121.802 237.773 121.417 238.042 120.916 238.237C120.415 238.423 119.817 238.515 119.122 238.515ZM127.477 238.515C126.652 238.515 125.929 238.353 125.307 238.028C124.695 237.695 124.218 237.24 123.874 236.665C123.541 236.09 123.374 235.436 123.374 234.704C123.374 233.962 123.536 233.308 123.861 232.742C124.194 232.167 124.649 231.717 125.224 231.393C125.808 231.068 126.471 230.906 127.213 230.906C127.937 230.906 128.581 231.064 129.147 231.379C129.712 231.694 130.158 232.139 130.482 232.714C130.807 233.289 130.969 233.966 130.969 234.745C130.969 234.82 130.964 234.903 130.955 234.996C130.955 235.089 130.951 235.177 130.941 235.26H124.751V234.106H130.023L129.342 234.467C129.351 234.041 129.263 233.665 129.077 233.34C128.892 233.016 128.637 232.761 128.312 232.575C127.997 232.39 127.63 232.297 127.213 232.297C126.787 232.297 126.411 232.39 126.086 232.575C125.771 232.761 125.521 233.02 125.335 233.354C125.159 233.679 125.071 234.064 125.071 234.509V234.787C125.071 235.232 125.173 235.626 125.377 235.97C125.581 236.313 125.868 236.577 126.239 236.763C126.61 236.948 127.037 237.041 127.519 237.041C127.937 237.041 128.312 236.976 128.646 236.846C128.98 236.716 129.277 236.512 129.536 236.234L130.468 237.305C130.134 237.695 129.712 237.996 129.202 238.209C128.702 238.413 128.127 238.515 127.477 238.515Z" fill="#232323"/>
<path d="M157.001 228.68V238.418H155.192V230.197H153.134V228.68H157.001ZM165.985 236.888V238.418H158.807V237.208L162.675 233.535C163.11 233.118 163.403 232.756 163.551 232.45C163.709 232.135 163.787 231.824 163.787 231.518C163.787 231.064 163.634 230.716 163.328 230.475C163.022 230.234 162.573 230.113 161.979 230.113C160.987 230.113 160.226 230.452 159.698 231.129L158.432 230.155C158.812 229.645 159.322 229.251 159.962 228.972C160.611 228.685 161.334 228.541 162.132 228.541C163.189 228.541 164.033 228.791 164.664 229.292C165.294 229.793 165.61 230.475 165.61 231.337C165.61 231.866 165.499 232.362 165.276 232.826C165.053 233.289 164.627 233.818 163.996 234.412L161.395 236.888H165.985ZM170.726 226.705H172.284L167.694 239.809H166.136L170.726 226.705ZM179.38 236.888V238.418H172.202V237.208L176.069 233.535C176.505 233.118 176.797 232.756 176.946 232.45C177.104 232.135 177.182 231.824 177.182 231.518C177.182 231.064 177.029 230.716 176.723 230.475C176.417 230.234 175.967 230.113 175.374 230.113C174.382 230.113 173.621 230.452 173.092 231.129L171.827 230.155C172.207 229.645 172.717 229.251 173.357 228.972C174.006 228.685 174.729 228.541 175.527 228.541C176.584 228.541 177.428 228.791 178.059 229.292C178.689 229.793 179.005 230.475 179.005 231.337C179.005 231.866 178.893 232.362 178.671 232.826C178.448 233.289 178.022 233.818 177.391 234.412L174.79 236.888H179.38ZM188.901 236.206H187.176V238.418H185.423V236.206H180.081V234.954L184.881 228.68H186.814L182.293 234.676H185.479V232.714H187.176V234.676H188.901V236.206Z" fill="#232323"/>
<g filter="url(#filter1_b_1_335)">
<path d="M57.9629 116.506C57.9629 111.384 62.115 107.231 67.237 107.231H113.607C118.729 107.231 122.881 111.384 122.881 116.506V144.328C122.881 149.45 118.729 153.602 113.607 153.602H67.237C62.115 153.602 57.9629 149.45 57.9629 144.328V116.506Z" fill="#232323" fill-opacity="0.3"/>
<path d="M58.5425 116.506C58.5425 111.704 62.4352 107.811 67.237 107.811H113.607C118.409 107.811 122.302 111.704 122.302 116.506V144.328C122.302 149.13 118.409 153.022 113.607 153.022H67.237C62.4352 153.022 58.5425 149.13 58.5425 144.328V116.506Z" stroke="#232323" stroke-opacity="0.3" stroke-width="1.15926"/>
</g>
<path d="M73.6131 108.391H74.7723V152.443H73.6131V138.531H59.1223V137.372H73.6131V123.461H59.1223V122.302H73.6131V108.391Z" fill="#232323" fill-opacity="0.3"/>
<path d="M106.652 137.372H121.722V138.531H106.652V152.443H105.493V129.257C105.493 125.416 108.607 122.302 112.448 122.302H121.722V123.461H112.448C109.247 123.461 106.652 126.056 106.652 129.257V137.372Z" fill="#232323" fill-opacity="0.3"/>
<path d="M106.652 108.391H105.493V117.665H106.652V108.391Z" fill="#232323" fill-opacity="0.3"/>
<path fill-rule="evenodd" clip-rule="evenodd" d="M98.5371 130.417C98.5371 134.898 94.904 138.531 90.4223 138.531C85.9406 138.531 82.3075 134.898 82.3075 130.417C82.3075 125.935 85.9406 122.302 90.4223 122.302C94.904 122.302 98.5371 125.935 98.5371 130.417ZM97.3779 130.417C97.3779 134.258 94.2638 137.372 90.4223 137.372C86.5809 137.372 83.4668 134.258 83.4668 130.417C83.4668 126.575 86.5809 123.461 90.4223 123.461C94.2638 123.461 97.3779 126.575 97.3779 130.417Z" fill="#232323" fill-opacity="0.3"/>
<path d="M420 60.6292C420.464 61.2089 420.811 61.9044 421.043 62.6C421.275 63.2955 421.391 64.107 421.391 64.9185C421.391 65.73 421.275 66.5415 421.043 67.237C420.811 67.9326 420.464 68.6281 420 69.2078C419.42 70.0192 419.536 71.1785 420.348 71.7581C421.159 72.3378 422.318 72.2218 422.898 71.4103C423.594 70.4829 424.057 69.5555 424.521 68.3963C424.985 67.237 425.101 66.0778 425.101 64.9185C425.101 63.7592 424.869 62.6 424.521 61.4407C424.173 60.3974 423.594 59.354 422.898 58.4266C422.318 57.6152 421.159 57.4992 420.348 58.0789C419.536 58.6585 419.42 59.8178 420 60.6292Z" fill="#232323"/>
<path d="M426.376 57.2674C427.767 59.47 428.578 62.1363 428.578 64.9185C428.578 67.7007 427.767 70.367 426.376 72.5696C425.796 73.3811 426.144 74.5403 426.956 75.12C427.883 75.6996 428.926 75.3518 429.506 74.5403C431.245 71.7581 432.288 68.5122 432.288 64.9185C432.288 61.4407 431.245 58.0789 429.506 55.2966C428.926 54.4852 427.767 54.1374 426.956 54.717C426.144 55.2966 425.796 56.34 426.376 57.2674Z" fill="#232323"/>
<path d="M433.1 53.7896C435.07 57.0355 436.114 60.8611 436.114 64.9185C436.114 68.9759 434.954 72.8015 433.1 76.0474C432.636 76.9748 432.868 78.0181 433.795 78.5978C434.723 79.0615 435.766 78.8296 436.346 77.9022C438.664 74.0766 439.939 69.6715 439.939 64.9185C439.939 60.1655 438.664 55.7603 436.346 51.9348C435.882 51.0074 434.723 50.7755 433.795 51.2392C432.868 51.8189 432.636 52.8622 433.1 53.7896Z" fill="#232323"/>
<path d="M439.823 50.3118C442.258 54.6011 443.765 59.5859 443.765 64.9185C443.765 70.2511 442.374 75.2359 439.823 79.5252C439.36 80.4526 439.591 81.4959 440.519 82.0755C441.446 82.5392 442.49 82.3074 443.069 81.38C445.851 76.5111 447.474 70.9466 447.474 64.9185C447.474 58.8903 445.851 53.3259 443.069 48.457C442.605 47.5296 441.446 47.2978 440.519 47.7615C439.591 48.2252 439.36 49.3844 439.823 50.3118Z" fill="#232323"/>
<g filter="url(#filter2_b_1_335)">
<circle cx="413.414" cy="254.604" r="21.628" fill="#232323" fill-opacity="0.3"/>
</g>
<g filter="url(#filter3_b_1_335)">
<path d="M461.861 254.604C461.861 266.549 452.178 276.232 440.233 276.232C428.288 276.232 418.605 266.549 418.605 254.604C418.605 242.66 428.288 232.977 440.233 232.977C452.178 232.977 461.861 242.66 461.861 254.604Z" fill="#232323" fill-opacity="0.7"/>
</g>
<g filter="url(#filter4_b_1_335)">
<path d="M426.824 237.634C421.817 241.595 418.605 247.725 418.605 254.604C418.605 261.484 421.817 267.614 426.824 271.575C431.83 267.614 435.042 261.484 435.042 254.604C435.042 247.725 431.83 241.595 426.824 237.634Z" fill="#232323" fill-opacity="0.6"/>
</g>
</g>
<defs>
<filter id="filter0_b_1_335" x="-57.963" y="-57.963" width="614.407" height="428.926" filterUnits="userSpaceOnUse" color-interpolation-filters="sRGB">
<feFlood flood-opacity="0" result="BackgroundImageFix"/>
<feGaussianBlur in="BackgroundImageFix" stdDeviation="28.9815"/>
<feComposite in2="SourceAlpha" operator="in" result="effect1_backgroundBlur_1_335"/>
<feBlend mode="normal" in="SourceGraphic" in2="effect1_backgroundBlur_1_335" result="shape"/>
</filter>
<filter id="filter1_b_1_335" x="43.4722" y="92.7407" width="93.8999" height="75.3518" filterUnits="userSpaceOnUse" color-interpolation-filters="sRGB">
<feFlood flood-opacity="0" result="BackgroundImageFix"/>
<feGaussianBlur in="BackgroundImageFix" stdDeviation="7.24537"/>
<feComposite in2="SourceAlpha" operator="in" result="effect1_backgroundBlur_1_335"/>
<feBlend mode="normal" in="SourceGraphic" in2="effect1_backgroundBlur_1_335" result="shape"/>
</filter>
<filter id="filter2_b_1_335" x="362.805" y="203.995" width="101.219" height="101.219" filterUnits="userSpaceOnUse" color-interpolation-filters="sRGB">
<feFlood flood-opacity="0" result="BackgroundImageFix"/>
<feGaussianBlur in="BackgroundImageFix" stdDeviation="14.4907"/>
<feComposite in2="SourceAlpha" operator="in" result="effect1_backgroundBlur_1_335"/>
<feBlend mode="normal" in="SourceGraphic" in2="effect1_backgroundBlur_1_335" result="shape"/>
</filter>
<filter id="filter3_b_1_335" x="389.624" y="203.995" width="101.219" height="101.219" filterUnits="userSpaceOnUse" color-interpolation-filters="sRGB">
<feFlood flood-opacity="0" result="BackgroundImageFix"/>
<feGaussianBlur in="BackgroundImageFix" stdDeviation="14.4907"/>
<feComposite in2="SourceAlpha" operator="in" result="effect1_backgroundBlur_1_335"/>
<feBlend mode="normal" in="SourceGraphic" in2="effect1_backgroundBlur_1_335" result="shape"/>
</filter>
<filter id="filter4_b_1_335" x="389.624" y="208.653" width="74.4002" height="91.9039" filterUnits="userSpaceOnUse" color-interpolation-filters="sRGB">
<feFlood flood-opacity="0" result="BackgroundImageFix"/>
<feGaussianBlur in="BackgroundImageFix" stdDeviation="14.4907"/>
<feComposite in2="SourceAlpha" operator="in" result="effect1_backgroundBlur_1_335"/>
<feBlend mode="normal" in="SourceGraphic" in2="effect1_backgroundBlur_1_335" result="shape"/>
</filter>
<clipPath id="clip0_1_335">
<rect width="498.481" height="313" rx="23.1852" fill="white"/>
</clipPath>
</defs>
</svg>
