<svg width="257" height="57" viewBox="0 0 257 57" fill="none" xmlns="http://www.w3.org/2000/svg">
<path d="M93.4656 37.3979C92.2118 36.2485 90.331 36.353 88.9727 37.3979L79.3601 45.0253C78.2108 46.0701 76.6435 46.4881 75.1807 46.4881H62.8515C61.9112 46.4881 61.1798 45.7567 61.1798 44.8163C61.1798 43.9804 61.9112 43.1445 62.8515 43.1445H71.0013C72.6731 43.1445 74.2404 42.0997 74.4493 40.4279C74.7628 38.3382 73.1955 36.4575 71.2103 36.4575H54.4927C51.6716 36.4575 48.8505 37.5024 46.6564 39.2786L41.8501 43.1445H36.1034C35.163 43.1445 34.4316 43.9804 34.4316 44.8163V54.8469C34.4316 55.7872 35.163 56.5186 36.1034 56.5186H73.3C74.8673 56.5186 76.3301 56.1007 77.4794 55.0558L93.3611 42.4132C94.9284 41.1593 95.0329 38.7562 93.4656 37.3979Z" fill="#8472F7"/>
<path d="M71.8673 12.0927C75.2148 15.4402 75.0089 19.8612 75.615 20.4673C75.0089 19.8612 70.5879 20.0671 67.2404 16.7196C63.8929 13.3721 64.0988 8.95109 63.4927 8.34497C64.0988 8.95109 68.5198 8.7452 71.8673 12.0927Z" fill="#30802B"/>
<path d="M66.9628 22.8487C70.157 19.6545 74.5926 20.068 75.1709 19.4896C74.5926 20.068 75.006 24.5035 71.8118 27.6977C68.6176 30.8919 64.1821 30.4784 63.6037 31.0568C64.1821 30.4784 63.7686 26.0429 66.9628 22.8487Z" fill="#30802B"/>
<path d="M77.9964 12.1496C81.1906 8.95536 85.6261 9.36877 86.2045 8.79041C85.6261 9.36877 86.0395 13.8043 82.8453 16.9985C79.6511 20.1927 75.2156 19.7793 74.6373 20.3576C75.2156 19.7793 74.8022 15.3438 77.9964 12.1496Z" fill="#30802B"/>
<path d="M83.2352 23.4607C86.5827 26.8082 86.3768 31.2292 86.9829 31.8353C86.3768 31.2292 81.9558 31.4351 78.6083 28.0876C75.2608 24.7401 75.4667 20.3191 74.8606 19.713C75.4667 20.3191 79.8877 20.1132 83.2352 23.4607Z" fill="#30802B"/>
<line x1="76.0537" y1="21.2404" x2="76.0537" y2="33.9549" stroke="#30802B" stroke-width="3" stroke-linecap="round"/>
<path d="M0 32.1111V1.73194H19.145V6.50648H5.52349V14.5109H17.9747V19.2386H5.52349V32.1111H0Z" fill="black"/>
<path d="M25.5988 32.1111V0H31.1223V32.1111H25.5988Z" fill="black"/>
<path d="M48.3334 32.7664C46.3987 32.7664 44.6277 32.2671 43.0206 31.2686C41.4135 30.27 40.1262 28.8735 39.1588 27.0791C38.1914 25.2692 37.7077 23.155 37.7077 20.7365C37.7077 18.24 38.1836 16.0946 39.1354 14.3002C40.1028 12.5059 41.3901 11.1328 42.9972 10.181C44.6043 9.22922 46.3831 8.75332 48.3334 8.75332C50.1434 8.75332 51.7037 9.12 53.0144 9.85334C54.3406 10.5711 55.4016 11.5541 56.1974 12.8023C57.0087 14.035 57.5549 15.4314 57.8357 16.9917C58.1166 18.5521 58.1322 20.1592 57.8825 21.8131H42.1078V18.8173H53.974L52.8973 19.5194C52.9441 18.7861 52.9051 18.045 52.7803 17.296C52.6711 16.5471 52.4527 15.8605 52.125 15.2364C51.7973 14.6123 51.3292 14.113 50.7207 13.7385C50.1278 13.3484 49.3632 13.1534 48.4271 13.1534C47.3036 13.1534 46.3519 13.4342 45.5717 13.996C44.7915 14.5577 44.1986 15.3222 43.7929 16.2896C43.3873 17.257 43.1844 18.3492 43.1844 19.5662V21.7663C43.1844 23.0457 43.3717 24.177 43.7461 25.16C44.1362 26.1429 44.7057 26.9153 45.4547 27.477C46.2192 28.0387 47.1788 28.3196 48.3334 28.3196C49.4101 28.3196 50.315 28.0699 51.0484 27.5706C51.7817 27.0713 52.2498 26.3224 52.4527 25.3238H58.0229C57.7889 26.7905 57.235 28.0855 56.3612 29.2089C55.5031 30.3168 54.3874 31.1905 53.0144 31.8303C51.6413 32.4544 50.081 32.7664 48.3334 32.7664Z" fill="black"/>
<path d="M106.411 32.6731C104.445 32.6731 102.643 32.322 101.004 31.6198C99.3662 30.9021 98.0477 29.8489 97.0491 28.4602C96.0505 27.0716 95.5356 25.3552 95.5044 23.3112H99.0619C99.0619 24.6843 99.3974 25.8155 100.068 26.7049C100.739 27.5787 101.629 28.234 102.736 28.6709C103.844 29.0921 105.053 29.3028 106.364 29.3028C107.784 29.3028 109.017 29.0765 110.062 28.6241C111.107 28.1716 111.911 27.5787 112.473 26.8453C113.05 26.0964 113.339 25.2772 113.339 24.3878C113.339 23.1396 112.956 22.1332 112.192 21.3686C111.427 20.5885 110.296 19.9566 108.798 19.4729L103.602 17.6473C101.168 16.7735 99.3271 15.7749 98.0789 14.6515C96.8307 13.5281 96.2065 11.9522 96.2065 9.92378C96.2065 7.64573 97.0803 5.78896 98.8278 4.35348C100.591 2.918 103.087 2.20026 106.317 2.20026C109.313 2.20026 111.654 2.89459 113.339 4.28327C115.024 5.65634 115.991 7.5053 116.241 9.83016H112.637C112.403 8.47269 111.763 7.41949 110.717 6.67054C109.688 5.90599 108.221 5.52371 106.317 5.52371C104.383 5.52371 102.877 5.9528 101.8 6.81096C100.724 7.66913 100.185 8.75355 100.185 10.0642C100.185 11.1408 100.521 11.999 101.192 12.6387C101.878 13.2628 102.947 13.8245 104.398 14.3238L110.483 16.4303C112.59 17.1324 114.251 18.1154 115.469 19.3792C116.701 20.6431 117.317 22.2814 117.317 24.2942C117.317 25.8545 116.896 27.2666 116.054 28.5304C115.227 29.7943 114.002 30.8007 112.379 31.5496C110.756 32.2986 108.767 32.6731 106.411 32.6731Z" fill="#3D3B40"/>
<path d="M139.575 9.68973H143.226V32.1113H139.575V9.68973ZM123.707 9.68973H127.358V23.6389C127.358 25.5112 127.81 26.9311 128.715 27.8985C129.636 28.8659 130.946 29.3496 132.647 29.3496C134.051 29.3496 135.268 28.9751 136.298 28.2262C137.344 27.4772 138.147 26.4474 138.709 25.1368C139.286 23.8105 139.575 22.297 139.575 20.5963H140.932C140.932 23.1084 140.566 25.2538 139.832 27.0325C139.115 28.8113 138.093 30.1766 136.766 31.1284C135.456 32.0645 133.911 32.5326 132.132 32.5326C130.447 32.5326 128.973 32.2206 127.709 31.5964C126.445 30.9723 125.462 30.0283 124.76 28.7645C124.058 27.485 123.707 25.8701 123.707 23.9197V9.68973Z" fill="#3D3B40"/>
<path d="M161.925 32.6731C160.287 32.6731 158.859 32.2986 157.642 31.5496C156.44 30.8007 155.512 29.7085 154.857 28.273C154.201 26.8219 153.874 25.0588 153.874 22.9835H155.418C155.418 24.3722 155.707 25.5424 156.284 26.4942C156.862 27.446 157.611 28.1716 158.531 28.6709C159.467 29.1546 160.458 29.3964 161.504 29.3964C162.627 29.3964 163.704 29.0765 164.733 28.4368C165.763 27.7815 166.606 26.8219 167.261 25.5581C167.916 24.2942 168.244 22.7339 168.244 20.8771C168.244 19.0984 167.94 17.5771 167.331 16.3132C166.738 15.0494 165.935 14.082 164.921 13.4111C163.906 12.7401 162.783 12.4047 161.55 12.4047C160.489 12.4047 159.491 12.6621 158.555 13.177C157.618 13.6919 156.862 14.4487 156.284 15.4473C155.707 16.4303 155.418 17.6473 155.418 19.0984H153.874C153.874 16.9296 154.233 15.1118 154.95 13.6451C155.668 12.1628 156.643 11.0472 157.876 10.2983C159.108 9.5493 160.489 9.17483 162.018 9.17483C163.766 9.17483 165.397 9.64292 166.91 10.5791C168.424 11.5153 169.648 12.8572 170.585 14.6047C171.521 16.3522 171.989 18.4431 171.989 20.8771C171.989 23.3424 171.513 25.4566 170.561 27.2198C169.625 28.9829 168.392 30.3326 166.863 31.2688C165.334 32.205 163.688 32.6731 161.925 32.6731ZM151.767 43.1115V9.73654H154.81L155.418 14.9792V43.1115H151.767Z" fill="#3D3B40"/>
<path d="M188.37 32.6731C186.732 32.6731 185.304 32.2986 184.087 31.5496C182.886 30.8007 181.957 29.7085 181.302 28.273C180.647 26.8219 180.319 25.0588 180.319 22.9835H181.864C181.864 24.3722 182.152 25.5424 182.73 26.4942C183.307 27.446 184.056 28.1716 184.977 28.6709C185.913 29.1546 186.904 29.3964 187.949 29.3964C189.072 29.3964 190.149 29.0765 191.179 28.4368C192.209 27.7815 193.051 26.8219 193.706 25.5581C194.362 24.2942 194.689 22.7339 194.689 20.8771C194.689 19.0984 194.385 17.5771 193.777 16.3132C193.184 15.0494 192.38 14.082 191.366 13.4111C190.352 12.7401 189.228 12.4047 187.996 12.4047C186.935 12.4047 185.936 12.6621 185 13.177C184.064 13.6919 183.307 14.4487 182.73 15.4473C182.152 16.4303 181.864 17.6473 181.864 19.0984H180.319C180.319 16.9296 180.678 15.1118 181.396 13.6451C182.113 12.1628 183.089 11.0472 184.321 10.2983C185.554 9.5493 186.935 9.17483 188.464 9.17483C190.211 9.17483 191.842 9.64292 193.355 10.5791C194.869 11.5153 196.094 12.8572 197.03 14.6047C197.966 16.3522 198.434 18.4431 198.434 20.8771C198.434 23.3424 197.958 25.4566 197.007 27.2198C196.07 28.9829 194.838 30.3326 193.309 31.2688C191.779 32.205 190.133 32.6731 188.37 32.6731ZM178.213 43.1115V9.73654H181.255L181.864 14.9792V43.1115H178.213Z" fill="#3D3B40"/>
<path d="M212.756 32.6731C210.743 32.6731 208.949 32.2284 207.373 31.339C205.813 30.4496 204.58 29.1312 203.675 27.3836C202.77 25.6361 202.318 23.4828 202.318 20.9239C202.318 18.3494 202.77 16.1962 203.675 14.4643C204.58 12.7167 205.813 11.3983 207.373 10.5089C208.949 9.61952 210.743 9.17483 212.756 9.17483C214.753 9.17483 216.532 9.61952 218.092 10.5089C219.668 11.3983 220.901 12.7167 221.79 14.4643C222.695 16.1962 223.148 18.3494 223.148 20.9239C223.148 23.4828 222.695 25.6361 221.79 27.3836C220.901 29.1312 219.668 30.4496 218.092 31.339C216.532 32.2284 214.753 32.6731 212.756 32.6731ZM212.662 29.49C214.113 29.49 215.346 29.1468 216.36 28.4602C217.374 27.7581 218.139 26.7673 218.654 25.4878C219.184 24.2084 219.45 22.6871 219.45 20.9239C219.45 18.2558 218.896 16.1572 217.788 14.6281C216.68 13.0834 215.034 12.311 212.85 12.311C211.383 12.311 210.142 12.6621 209.128 13.3643C208.13 14.0508 207.365 15.0416 206.835 16.3366C206.32 17.6161 206.062 19.1452 206.062 20.9239C206.062 23.5609 206.616 25.6517 207.724 27.1964C208.847 28.7255 210.494 29.49 212.662 29.49Z" fill="#3D3B40"/>
<path d="M229.321 32.1113V9.68973H232.972V32.1113H229.321ZM231.848 22.0006C231.848 19.1608 232.121 16.8047 232.667 14.9324C233.214 13.0444 234.009 11.6401 235.055 10.7195C236.116 9.78335 237.403 9.31526 238.916 9.31526C239.416 9.31526 239.868 9.35427 240.274 9.43228C240.695 9.49469 241.117 9.59611 241.538 9.73654L241.304 13.3408C240.867 13.2004 240.391 13.0834 239.876 12.9898C239.361 12.8806 238.901 12.8259 238.495 12.8259C237.169 12.8259 236.1 13.2082 235.289 13.9728C234.477 14.7217 233.884 15.7827 233.51 17.1558C233.151 18.5289 232.972 20.1438 232.972 22.0006H231.848Z" fill="#3D3B40"/>
<path d="M252.179 32.6731C250.962 32.6731 249.87 32.439 248.902 31.9709C247.935 31.5028 247.17 30.8007 246.609 29.8645C246.047 28.9283 245.766 27.7581 245.766 26.3538V3.51092H249.37V26.2602C249.37 28.5694 250.447 29.7241 252.6 29.7241C253.24 29.7241 253.856 29.6539 254.449 29.5134C255.058 29.373 255.736 29.1624 256.485 28.8815L257 31.5028C256.204 31.8461 255.409 32.1269 254.613 32.3454C253.833 32.5638 253.021 32.6731 252.179 32.6731ZM242.162 12.2642V9.73654H256.438V12.2642H242.162Z" fill="#3D3B40"/>
</svg>
