<svg width="153" height="34" viewBox="0 0 153 34" fill="none" xmlns="http://www.w3.org/2000/svg">
<path d="M55.6429 22.2641C54.8965 21.5799 53.7768 21.6421 52.9682 22.2641L47.2455 26.8049C46.5612 27.427 45.6282 27.6758 44.7574 27.6758H37.4174C36.8576 27.6758 36.4221 27.2404 36.4221 26.6805C36.4221 26.1829 36.8576 25.6853 37.4174 25.6853H42.2692C43.2645 25.6853 44.1975 25.0632 44.3219 24.068C44.5085 22.8239 43.5755 21.7043 42.3936 21.7043H32.4412C30.7617 21.7043 29.0822 22.3263 27.7759 23.3838L24.9146 25.6853H21.4934C20.9336 25.6853 20.4982 26.1829 20.4982 26.6805V32.652C20.4982 33.2118 20.9336 33.6473 21.4934 33.6473H43.6377C44.5707 33.6473 45.4416 33.3985 46.1258 32.7764L55.5807 25.2499C56.5137 24.5034 56.5759 23.0728 55.6429 22.2641Z" fill="#8472F7"/>
<path d="M42.7849 7.19903C44.7777 9.19189 44.6551 11.8238 45.016 12.1847C44.6551 11.8238 42.0232 11.9464 40.0303 9.95355C38.0375 7.96069 38.16 5.32873 37.7992 4.9679C38.16 5.32873 40.792 5.20616 42.7849 7.19903Z" fill="#30802B"/>
<path d="M39.8651 13.6024C41.7667 11.7008 44.4073 11.9469 44.7516 11.6026C44.4073 11.9469 44.6534 14.5875 42.7518 16.4891C40.8502 18.3907 38.2096 18.1446 37.8653 18.4889C38.2096 18.1446 37.9635 15.504 39.8651 13.6024Z" fill="#30802B"/>
<path d="M46.4337 7.23288C48.3353 5.33128 50.9759 5.5774 51.3202 5.23308C50.9759 5.5774 51.222 8.21799 49.3204 10.1196C47.4188 12.0212 44.7782 11.7751 44.4339 12.1194C44.7782 11.7751 44.5321 9.13449 46.4337 7.23288Z" fill="#30802B"/>
<path d="M49.5525 13.9668C51.5454 15.9596 51.4228 18.5916 51.7837 18.9524C51.4228 18.5916 48.7909 18.7141 46.798 16.7213C44.8051 14.7284 44.9277 12.0965 44.5669 11.7356C44.9277 12.0965 47.5597 11.9739 49.5525 13.9668Z" fill="#30802B"/>
<line x1="45.884" y1="13.2521" x2="45.884" y2="19.6074" stroke="#30802B" stroke-width="3" stroke-linecap="round"/>
<path d="M0 19.1167V1.03108H11.3976V3.87351H3.2883V8.63876H10.7009V11.4533H3.2883V19.1167H0Z" fill="black"/>
<path d="M15.2397 19.1167V0H18.528V19.1167H15.2397Z" fill="black"/>
<path d="M28.7744 19.5069C27.6225 19.5069 26.5682 19.2096 25.6115 18.6151C24.6547 18.0206 23.8884 17.1893 23.3125 16.121C22.7365 15.0435 22.4486 13.7849 22.4486 12.3451C22.4486 10.8588 22.7319 9.58159 23.2985 8.51336C23.8744 7.44512 24.6408 6.62769 25.5976 6.06107C26.5543 5.49444 27.6133 5.21112 28.7744 5.21112C29.8519 5.21112 30.7808 5.42941 31.5611 5.866C32.3506 6.29329 32.9823 6.8785 33.456 7.62161C33.9391 8.35544 34.2642 9.18681 34.4314 10.1157C34.5986 11.0446 34.6079 12.0014 34.4592 12.986H25.0681V11.2025H32.1324L31.4914 11.6205C31.5193 11.1839 31.4961 10.7427 31.4217 10.2968C31.3567 9.85097 31.2267 9.44226 31.0316 9.0707C30.8365 8.69914 30.5579 8.40189 30.1956 8.17895C29.8426 7.94673 29.3875 7.83062 28.8301 7.83062C28.1613 7.83062 27.5947 7.99782 27.1302 8.33222C26.6658 8.66663 26.3128 9.12179 26.0713 9.6977C25.8298 10.2736 25.709 10.9239 25.709 11.6484V12.9581C25.709 13.7198 25.8205 14.3933 26.0434 14.9785C26.2756 15.5637 26.6147 16.0235 27.0606 16.3579C27.5157 16.6923 28.087 16.8595 28.7744 16.8595C29.4153 16.8595 29.9541 16.7109 30.3907 16.4136C30.8273 16.1164 31.1059 15.6705 31.2267 15.076H34.5428C34.4035 15.9492 34.0738 16.7202 33.5536 17.389C33.0427 18.0485 32.3785 18.5687 31.5611 18.9495C30.7436 19.3211 29.8148 19.5069 28.7744 19.5069Z" fill="black"/>
<path d="M63.3496 19.4512C62.1792 19.4512 61.1063 19.2422 60.1309 18.8242C59.1556 18.3969 58.3707 17.7699 57.7762 16.9432C57.1817 16.1165 56.8751 15.0947 56.8566 13.8778H58.9745C58.9745 14.6952 59.1742 15.3687 59.5736 15.8982C59.973 16.4184 60.5025 16.8085 61.162 17.0686C61.8215 17.3194 62.5414 17.4448 63.3217 17.4448C64.167 17.4448 64.9008 17.3101 65.5232 17.0407C66.1456 16.7713 66.6239 16.4184 66.9583 15.9818C67.302 15.5359 67.4739 15.0482 67.4739 14.5188C67.4739 13.7756 67.2463 13.1765 66.7911 12.7213C66.336 12.2569 65.6625 11.8807 64.7708 11.5927L61.6776 10.5059C60.2285 9.98573 59.1324 9.39124 58.3893 8.72243C57.6461 8.05362 57.2746 7.11543 57.2746 5.90786C57.2746 4.55167 57.7948 3.44628 58.8351 2.59169C59.8848 1.73711 61.371 1.30981 63.2938 1.30981C65.0773 1.30981 66.4707 1.72317 67.4739 2.5499C68.4771 3.36733 69.053 4.46807 69.2016 5.85213H67.0559C66.9165 5.04399 66.5357 4.41698 65.9133 3.97111C65.3003 3.51595 64.4271 3.28837 63.2938 3.28837C62.142 3.28837 61.2456 3.54382 60.6047 4.05471C59.9637 4.56561 59.6433 5.21119 59.6433 5.99147C59.6433 6.63241 59.843 7.1433 60.2424 7.52415C60.6511 7.89571 61.2874 8.23011 62.1513 8.52736L65.774 9.78137C67.028 10.1994 68.0173 10.7846 68.7418 11.537C69.4757 12.2894 69.8426 13.2647 69.8426 14.463C69.8426 15.3919 69.5918 16.2326 69.0902 16.985C68.5978 17.7374 67.8687 18.3365 66.9026 18.7824C65.9366 19.2283 64.7522 19.4512 63.3496 19.4512Z" fill="#3D3B40"/>
<path d="M83.0931 5.76853H85.2667V19.1168H83.0931V5.76853ZM73.6462 5.76853H75.8198V14.0729C75.8198 15.1876 76.0892 16.0329 76.628 16.6088C77.176 17.1847 77.9563 17.4727 78.9688 17.4727C79.8048 17.4727 80.5293 17.2497 81.1424 16.8038C81.7648 16.358 82.2432 15.7449 82.5776 14.9646C82.9212 14.1751 83.0931 13.274 83.0931 12.2615H83.9012C83.9012 13.7571 83.6829 15.0343 83.2464 16.0932C82.8191 17.1522 82.2106 17.965 81.4211 18.5316C80.6408 19.0889 79.7212 19.3676 78.6622 19.3676C77.659 19.3676 76.7812 19.1818 76.0288 18.8103C75.2764 18.4387 74.6912 17.8767 74.2732 17.1243C73.8552 16.3626 73.6462 15.4012 73.6462 14.2401V5.76853Z" fill="#3D3B40"/>
<path d="M96.3987 19.4512C95.4234 19.4512 94.5734 19.2283 93.8489 18.7824C93.1336 18.3365 92.5809 17.6863 92.1908 16.8317C91.8006 15.9678 91.6056 14.9182 91.6056 13.6827H92.5252C92.5252 14.5095 92.697 15.2061 93.0407 15.7728C93.3844 16.3394 93.8303 16.7713 94.3783 17.0686C94.9357 17.3565 95.5255 17.5005 96.1479 17.5005C96.8167 17.5005 97.4576 17.3101 98.0707 16.9292C98.6838 16.5391 99.1854 15.9678 99.5755 15.2154C99.9657 14.463 100.161 13.5341 100.161 12.4287C100.161 11.3698 99.9796 10.4641 99.6173 9.71171C99.2643 8.9593 98.786 8.38338 98.1822 7.98395C97.5784 7.58453 96.9096 7.38481 96.1758 7.38481C95.5441 7.38481 94.9496 7.53808 94.3923 7.84462C93.8349 8.15115 93.3844 8.60167 93.0407 9.19617C92.697 9.78137 92.5252 10.5059 92.5252 11.3698H91.6056C91.6056 10.0786 91.8192 8.99645 92.2465 8.12329C92.6738 7.24083 93.2544 6.57667 93.9882 6.1308C94.722 5.68493 95.5441 5.46199 96.4544 5.46199C97.4948 5.46199 98.4655 5.74066 99.3665 6.298C100.268 6.85534 100.997 7.65419 101.554 8.69456C102.111 9.73493 102.39 10.9797 102.39 12.4287C102.39 13.8964 102.107 15.1551 101.54 16.2047C100.983 17.2544 100.249 18.0579 99.3387 18.6152C98.4283 19.1725 97.4484 19.4512 96.3987 19.4512ZM90.3516 25.6655V5.7964H92.1629L92.5252 8.9175V25.6655H90.3516Z" fill="#3D3B40"/>
<path d="M112.142 19.4512C111.167 19.4512 110.317 19.2283 109.593 18.7824C108.877 18.3365 108.325 17.6863 107.935 16.8317C107.544 15.9678 107.349 14.9182 107.349 13.6827H108.269C108.269 14.5095 108.441 15.2061 108.784 15.7728C109.128 16.3394 109.574 16.7713 110.122 17.0686C110.679 17.3565 111.269 17.5005 111.892 17.5005C112.56 17.5005 113.201 17.3101 113.814 16.9292C114.428 16.5391 114.929 15.9678 115.319 15.2154C115.709 14.463 115.904 13.5341 115.904 12.4287C115.904 11.3698 115.723 10.4641 115.361 9.71171C115.008 8.9593 114.53 8.38338 113.926 7.98395C113.322 7.58453 112.653 7.38481 111.92 7.38481C111.288 7.38481 110.693 7.53808 110.136 7.84462C109.579 8.15115 109.128 8.60167 108.784 9.19617C108.441 9.78137 108.269 10.5059 108.269 11.3698H107.349C107.349 10.0786 107.563 8.99645 107.99 8.12329C108.418 7.24083 108.998 6.57667 109.732 6.1308C110.466 5.68493 111.288 5.46199 112.198 5.46199C113.239 5.46199 114.209 5.74066 115.11 6.298C116.011 6.85534 116.74 7.65419 117.298 8.69456C117.855 9.73493 118.134 10.9797 118.134 12.4287C118.134 13.8964 117.851 15.1551 117.284 16.2047C116.727 17.2544 115.993 18.0579 115.082 18.6152C114.172 19.1725 113.192 19.4512 112.142 19.4512ZM106.095 25.6655V5.7964H107.907L108.269 8.9175V25.6655H106.095Z" fill="#3D3B40"/>
<path d="M126.66 19.4512C125.462 19.4512 124.394 19.1865 123.455 18.657C122.526 18.1275 121.793 17.3426 121.254 16.3022C120.715 15.2619 120.446 13.98 120.446 12.4566C120.446 10.9239 120.715 9.64204 121.254 8.61096C121.793 7.57059 122.526 6.78567 123.455 6.2562C124.394 5.72673 125.462 5.46199 126.66 5.46199C127.849 5.46199 128.908 5.72673 129.837 6.2562C130.775 6.78567 131.509 7.57059 132.038 8.61096C132.577 9.64204 132.847 10.9239 132.847 12.4566C132.847 13.98 132.577 15.2619 132.038 16.3022C131.509 17.3426 130.775 18.1275 129.837 18.657C128.908 19.1865 127.849 19.4512 126.66 19.4512ZM126.604 17.5563C127.468 17.5563 128.202 17.3519 128.806 16.9432C129.41 16.5252 129.865 15.9353 130.171 15.1736C130.487 14.4119 130.645 13.5063 130.645 12.4566C130.645 10.8682 130.315 9.61882 129.656 8.70849C128.996 7.78889 128.016 7.32908 126.716 7.32908C125.843 7.32908 125.104 7.53808 124.5 7.95609C123.906 8.3648 123.451 8.95465 123.135 9.72564C122.828 10.4873 122.675 11.3977 122.675 12.4566C122.675 14.0264 123.005 15.2712 123.664 16.1908C124.333 17.1011 125.313 17.5563 126.604 17.5563Z" fill="#3D3B40"/>
<path d="M136.521 19.1168V5.76853H138.695V19.1168H136.521ZM138.026 13.0975C138.026 11.4069 138.189 10.0043 138.514 8.88963C138.839 7.76566 139.313 6.92965 139.935 6.3816C140.567 5.82426 141.333 5.54559 142.234 5.54559C142.531 5.54559 142.801 5.56882 143.042 5.61526C143.293 5.65242 143.544 5.7128 143.795 5.7964L143.655 7.94215C143.395 7.85855 143.112 7.78888 142.805 7.73315C142.499 7.66813 142.225 7.63562 141.983 7.63562C141.194 7.63562 140.558 7.8632 140.074 8.31836C139.591 8.76423 139.238 9.39588 139.016 10.2133C138.802 11.0307 138.695 11.9922 138.695 13.0975H138.026Z" fill="#3D3B40"/>
<path d="M150.13 19.4512C149.405 19.4512 148.755 19.3119 148.179 19.0332C147.603 18.7545 147.148 18.3365 146.814 17.7792C146.479 17.2219 146.312 16.5252 146.312 15.6892V2.09009H148.458V15.6334C148.458 17.0082 149.099 17.6956 150.38 17.6956C150.761 17.6956 151.128 17.6538 151.481 17.5702C151.844 17.4866 152.248 17.3612 152.693 17.194L153 18.7545C152.526 18.9589 152.053 19.1261 151.579 19.2561C151.114 19.3862 150.631 19.4512 150.13 19.4512ZM144.166 7.30121V5.7964H152.666V7.30121H144.166Z" fill="#3D3B40"/>
</svg>
